<svg width="32" height="31" viewBox="0 0 32 31" fill="none" xmlns="http://www.w3.org/2000/svg">
<path id="Vector" d="M27.9389 0C28.8487 0 29.7212 0.361411 30.3646 1.00473C31.0079 1.64804 31.3693 2.52057 31.3693 3.43036V27.4428C31.3693 28.3526 31.0079 29.2252 30.3646 29.8685C29.7212 30.5118 28.8487 30.8732 27.9389 30.8732H3.92645C3.01666 30.8732 2.14414 30.5118 1.50082 29.8685C0.857505 29.2252 0.496094 28.3526 0.496094 27.4428V3.43036C0.496094 2.52057 0.857505 1.64804 1.50082 1.00473C2.14414 0.361411 3.01666 0 3.92645 0H27.9389ZM27.0813 26.5853V17.4948C27.0813 16.0119 26.4922 14.5896 25.4436 13.541C24.395 12.4924 22.9728 11.9033 21.4899 11.9033C20.032 11.9033 18.3339 12.7952 17.5107 14.1331V12.2292H12.7253V26.5853H17.5107V18.1294C17.5107 16.8087 18.5741 15.7282 19.8948 15.7282C20.5316 15.7282 21.1424 15.9812 21.5927 16.4315C22.043 16.8818 22.296 17.4926 22.296 18.1294V26.5853H27.0813ZM7.15098 9.53639C7.9152 9.53639 8.64812 9.2328 9.18851 8.69242C9.7289 8.15203 10.0325 7.41911 10.0325 6.65489C10.0325 5.05977 8.7461 3.75624 7.15098 3.75624C6.38221 3.75624 5.64493 4.06163 5.10133 4.60523C4.55773 5.14884 4.25233 5.88612 4.25233 6.65489C4.25233 8.25 5.55587 9.53639 7.15098 9.53639ZM9.53508 26.5853V12.2292H4.78404V26.5853H9.53508Z" fill="#B2C3CC"/>
</svg>
